<svg width="25" height="24" viewBox="0 0 25 24" fill="none" xmlns="http://www.w3.org/2000/svg">
<g clip-path="url(#clip0_22_429)">
<path d="M24.5 2.92233C23.6013 3.41007 22.648 3.73017 21.6719 3.872C22.6887 3.12559 23.4693 1.94362 23.8369 0.53531C22.8704 1.2378 21.8129 1.73278 20.7103 1.99885C19.812 0.826755 18.5324 0.0942383 17.1162 0.0942383C14.3968 0.0942383 12.1921 2.79464 12.1921 6.12524C12.1921 6.59801 12.2357 7.05826 12.3196 7.49979C8.22744 7.24819 4.59931 4.84716 2.17072 1.19824C1.74697 2.08899 1.50416 3.12513 1.50416 4.23028C1.50416 6.32276 2.3735 8.16869 3.69462 9.2503C2.9127 9.22035 2.14797 8.96167 1.46431 8.49585C1.46406 8.52111 1.46397 8.54641 1.46403 8.57175C1.46403 11.4939 3.16128 13.9316 5.41372 14.4856C4.68864 14.7271 3.92809 14.7625 3.19016 14.589C3.81669 16.9851 5.63516 18.7287 7.78972 18.7775C6.10456 20.395 3.98141 21.3593 1.67459 21.3593C1.27709 21.3593 0.885219 21.3307 0.5 21.275C2.67903 22.9862 5.26719 23.9847 8.04781 23.9847C17.1047 23.9847 22.0573 14.7945 22.0573 6.82469C22.0573 6.5631 22.0525 6.303 22.043 6.0444C23.0069 5.19074 23.8389 4.13352 24.5 2.92233Z" fill="#55ACEE"/>
</g>
<defs>
<clipPath id="clip0_22_429">
<rect width="24" height="24" fill="white" transform="translate(0.5)"/>
</clipPath>
</defs>
</svg>
