<svg width="40" height="40" viewBox="0 0 40 40" fill="none" xmlns="http://www.w3.org/2000/svg">
<circle cx="20" cy="20" r="20" fill="#EB278D"/>
<path d="M17.5 15H30M10 25H22.5" stroke="white" stroke-linecap="round"/>
<path d="M10 15C10 17.0711 11.6789 18.75 13.75 18.75C15.8211 18.75 17.5 17.0711 17.5 15C17.5 12.9289 15.8211 11.25 13.75 11.25C11.6789 11.25 10 12.9289 10 15Z" stroke="white" stroke-linecap="round"/>
<path d="M22.5 25C22.5 27.0711 24.1789 28.75 26.25 28.75C28.3211 28.75 30 27.0711 30 25C30 22.9289 28.3211 21.25 26.25 21.25C24.1789 21.25 22.5 22.9289 22.5 25Z" stroke="white" stroke-linecap="round"/>
</svg>
