<svg width="24" height="24" viewBox="0 0 24 24" fill="none" xmlns="http://www.w3.org/2000/svg">
<path d="M9.90471 3.7921C5.74221 3.80569 2.63486 5.14257 0.885488 6.79726L1.46486 7.40663C4.37955 4.65788 12.1125 2.55038 22.7625 8.28788L23.1656 7.54726C18.0656 4.80038 13.575 3.77991 9.90471 3.7921ZM5.36252 7.76757C2.73846 8.79413 1.55814 10.8426 0.83252 12.1926L1.57596 12.5957C2.29033 11.2598 3.31643 9.47382 5.6719 8.55507C8.02502 7.63632 11.7891 7.57538 18.0047 9.99413L18.3141 9.20663C14.0156 7.67851 9.54846 6.16913 5.36252 7.76757ZM17.5688 11.3301C9.24846 15.6191 5.38127 14.3863 1.04721 13.2707L0.837207 14.091C1.58533 14.2832 2.33439 14.4801 3.10549 14.6488C2.19799 15.2863 1.75455 15.4551 1.22158 15.8019C2.42393 15.7504 3.19877 15.3707 4.02049 15.0238C3.4308 15.7504 2.91658 16.4769 1.86424 17.2457C3.1308 16.9082 4.35049 16.5332 5.26877 15.8957C4.68424 16.8332 3.96939 17.7473 3.16455 18.6426C4.54408 18.2113 5.58752 17.1707 6.67033 16.1394C6.65627 17.0348 6.23908 17.9301 5.94377 18.8254C6.92814 17.9207 7.35002 17.2691 7.94533 16.3644C7.88908 17.7332 8.27346 18.8394 8.61096 20.2082C8.8219 18.9004 9.05627 17.5879 9.05627 16.3223C9.7594 17.4941 10.7016 18.5629 11.8875 19.5144C11.2547 18.4129 10.6219 17.316 10.2891 16.1723C11.4985 17.3207 12.7594 18.4363 14.2735 19.3691C13.2656 18.2676 12.3094 17.1519 11.6906 15.9613C12.7781 16.9832 13.8703 18.0051 15.6891 18.5957C14.3719 17.691 13.5281 16.6644 12.9094 15.5816C14.161 16.6316 15.5625 17.5644 17.2547 18.2629C15.7594 17.2316 14.9156 16.2004 14.3391 15.1691C15.5766 16.191 16.9922 16.866 18.225 17.541C17.25 16.641 16.186 15.7785 15.675 14.7098C16.6828 15.5863 17.8735 15.966 19.05 16.3738C17.9578 15.6473 17.3297 15.1551 16.6781 14.2973C17.7188 14.8223 18.586 15.0285 19.8375 15.3379C19.0219 14.8832 18.1547 14.2598 17.5969 13.7207C18.8485 14.0348 20.2219 14.0863 21.5156 14.0676C20.3297 13.7582 19.0406 13.4863 18.3563 13.0129C21.0938 13.0363 21.2625 12.7973 22.411 12.2254C19.9828 12.4035 18.4406 12.3613 17.5688 11.3301Z" fill="#EB278D"/>
</svg>
