<svg width="24" height="24" viewBox="0 0 24 24" fill="none" xmlns="http://www.w3.org/2000/svg">
<path d="M2.40039 7.94922H6.20996V15.3906H14.8496V16.7988C14.8496 17.7045 14.1059 18.4491 13.2002 18.4492H6.88965L6.66992 18.6689L4.34961 20.9883V18.4492H2.40039C1.4946 18.4492 0.75 17.7046 0.75 16.7988V9.59961C0.75 8.69382 1.4946 7.94922 2.40039 7.94922ZM10.7998 1.94922H21.5996C22.5054 1.94922 23.25 2.69382 23.25 3.59961V10.7988C23.25 11.7056 22.5056 12.4492 21.5996 12.4492H19.6504V14.9883L17.3301 12.6689L17.1104 12.4492H9.15039V3.59961C9.15039 2.69389 9.89411 1.94933 10.7998 1.94922Z" stroke="#EB278D" stroke-width="1.5"/>
</svg>
